# xmcd
#
# Track frame offsets: 
#        150
#        14370
#        38639
#        52064
#        68539
#        94199
#        107808
#        121315
#        133996
#        144128
#
# Disc length: 2023 seconds
#
# Revision: 1
# Processed by: cddbd v1.5.2PL0 Copyright (c) Steve Scherf et al.
# Submitted via: ExactAudioCopy v0.99pb3
#
DISCID=8607e50a
DTITLE=Taj Mahal - World Blues
DYEAR=2007
DGENRE=Blues
TTITLE0=Rolling Wheel Blues
TTITLE1=Jumpin Blues
TTITLE2=Hesitation Blues
TTITLE3=Freight Train Blues
TTITLE4=Sweet Mama Red
TTITLE5=Stagger Lee
TTITLE6=Tom and Sally Drake
TTITLE7=Ulysses S Gregory
TTITLE8=Carribbean Rhapsody Part 1
TTITLE9=Carribbean Rhapsody Part 2
EXTD=
EXTT0=
EXTT1=
EXTT2=
EXTT3=
EXTT4=
EXTT5=
EXTT6=
EXTT7=
EXTT8=
EXTT9=
PLAYORDER=
